<svg width="19" height="14" viewBox="0 0 19 14" fill="none" xmlns="http://www.w3.org/2000/svg">
<path d="M7.20318 11.7215C7.20318 12.9747 8.22527 14 9.5 14C10.7747 14 11.7968 12.9747 11.7968 11.7215C11.7968 10.4684 10.7633 9.44304 9.5 9.44304C8.23675 9.44304 7.20318 10.4684 7.20318 11.7215ZM16 7.66582C14.2659 5.94557 11.9576 5 9.5 5C7.0424 5 4.7341 5.94557 3 7.66582L4.61926 9.27215C5.91696 7.98481 7.65106 7.26709 9.48852 7.26709C11.326 7.26709 13.0601 7.97342 14.3578 9.27215L15.977 7.66582H16Z" fill="white"/>
<path d="M1.58893 6C3.70377 3.6998 6.51237 2.43408 9.5 2.43408C12.4876 2.43408 15.2962 3.6998 17.4111 6L19 4.28398C16.46 1.5213 13.0919 0 9.5 0C5.90813 0 2.54005 1.5213 0 4.28398L1.58893 6Z" fill="white"/>
</svg>
