<svg width="16" height="16" viewBox="0 0 16 16" fill="none" xmlns="http://www.w3.org/2000/svg">
<path d="M11.1542 0.732004H10.2312L11.1911 1.77363V2.2695H9.21409V1.68888H10.1738L9.21409 0.647254V0.150879H11.1542V0.732004ZM8.82209 0.732004H7.89909L8.85896 1.77363V2.2695H6.88184V1.68888H7.84171L6.88184 0.647254V0.150879H8.82209V0.732004ZM6.51284 0.755754H5.51684V1.66463H6.51284V2.2695H4.80884V0.150879H6.51284V0.755754Z" fill="white"/>
<path d="M3.45158 14.5882L2.43945 3.23657H13.5603L12.5473 14.5863L7.99308 15.8491L3.45158 14.5882Z" fill="#1572B6"/>
<path d="M8.00024 14.884L11.6801 13.8638L12.5459 4.16492H8.00024V14.884Z" fill="#33A9DC"/>
<path d="M8 8.27747H9.84225L9.96963 6.85184H8V5.45959H11.4911L11.4578 5.8331L11.1156 9.6696H8V8.27747Z" fill="white"/>
<path d="M8.00833 11.8932L8.0022 11.895L6.4517 11.4762L6.35245 10.3658H4.95508L5.1502 12.5518L8.00195 13.3435L8.00845 13.3416L8.00833 11.8932Z" fill="#EBEBEB"/>
<path d="M9.72392 9.61072L9.55617 11.4752L8.00342 11.8943V13.3428L10.8575 12.5518L10.8785 12.3166L11.1208 9.61072H9.72392Z" fill="white"/>
<path d="M8.00496 5.45959V6.85172H4.64208L4.61408 6.53885L4.55071 5.8331L4.51733 5.45959H8.00496ZM8.00008 8.2776V9.66985H6.46921L6.44133 9.35697L6.37783 8.65109L6.34446 8.2776H8.00008Z" fill="#EBEBEB"/>
</svg>
